<svg xmlns="http://www.w3.org/2000/svg" version="1.1" xmlns:xlink="http://www.w3.org/1999/xlink" xmlns:svgjs="http://svgjs.dev/svgjs" width="2000" height="1500" viewBox="0 0 2000 1500"><rect width="2000" height="1500" fill="#000000"></rect><g transform="matrix(0.75,0,0,0.75,249.51197986151215,215.30829959514165)"><svg viewBox="0 0 346 247" data-background-color="#fefefe" preserveAspectRatio="xMidYMid meet" height="1427" width="2000" xmlns="http://www.w3.org/2000/svg" xmlns:xlink="http://www.w3.org/1999/xlink"><g id="tight-bounds" transform="matrix(1,0,0,1,0.11256997861119089,-0.09999999999999432)"><svg viewBox="0 0 345.7748600427776 247.2" height="247.2" width="345.7748600427776"><g><svg viewBox="0 0 395.5199999999999 282.7635993776529" height="247.2" width="345.7748600427776"><g transform="matrix(1,0,0,1,0,184.59228639451723)"><svg viewBox="0 0 395.5199999999999 98.17131298313565" height="98.17131298313565" width="395.5199999999999"><g id="textblocktransform"><svg viewBox="0 0 395.5199999999999 98.17131298313565" height="98.17131298313565" width="395.5199999999999" id="textblock"><g><svg viewBox="0 0 395.5199999999999 52.05056051990251" height="52.05056051990251" width="395.5199999999999"><g transform="matrix(1,0,0,1,0,0)"><svg width="395.5199999999999" viewBox="0.6 -39 307.73999999999995 40.5" height="52.05056051990251" data-palette-color="#2a2f3e"><path d="M27.1-22.6L27.1-22.6Q34.6-22.6 39.65-21.95 44.7-21.3 47.7-19.93 50.7-18.55 52-16.43 53.3-14.3 53.3-11.4L53.3-11.4Q53.3-8.25 51.28-5.83 49.25-3.4 45.63-1.78 42-0.15 37.23 0.68 32.45 1.5 26.95 1.5L26.95 1.5Q20.85 1.5 15.85 0.6 10.85-0.3 7.35-2.18 3.85-4.05 2.13-7 0.4-9.95 0.75-14.05L0.75-14.05 22.1-15.5Q21.7-14 22.33-13 22.95-12 24.3-11.5 25.65-11 27.3-11L27.3-11Q28.3-11 29.13-11.15 29.95-11.3 30.6-11.6 31.25-11.9 31.6-12.38 31.95-12.85 31.95-13.45L31.95-13.45Q31.95-14.65 30.73-15 29.5-15.35 27.15-15.35L27.15-15.35Q27.05-15.35 26.93-15.35 26.8-15.35 26.68-15.35 26.55-15.35 26.4-15.35 26.25-15.35 26.13-15.35 26-15.35 25.9-15.35L25.9-15.35Q18.5-15.35 13.6-16.13 8.7-16.9 5.85-18.3 3-19.7 1.8-21.63 0.6-23.55 0.6-25.95L0.6-25.95Q0.6-28.5 1.95-30.58 3.3-32.65 5.78-34.23 8.25-35.8 11.58-36.85 14.9-37.9 18.88-38.45 22.85-39 27.2-39L27.2-39Q33.35-39 38.23-37.9 43.1-36.8 46.43-34.75 49.75-32.7 51.2-29.85 52.65-27 51.9-23.45L51.9-23.45 31.25-22.5Q31.8-23.95 31.2-24.88 30.6-25.8 29.33-26.23 28.05-26.65 26.45-26.65L26.45-26.65Q25.45-26.65 24.65-26.48 23.85-26.3 23.28-25.98 22.7-25.65 22.38-25.2 22.05-24.75 22.05-24.25L22.05-24.25Q22.05-23.65 22.45-23.28 22.85-22.9 23.68-22.75 24.5-22.6 25.85-22.6L25.85-22.6Q25.95-22.6 26.08-22.6 26.2-22.6 26.33-22.6 26.45-22.6 26.58-22.6 26.7-22.6 26.83-22.6 26.95-22.6 27.1-22.6ZM53.55-37.5L98.6-37.5 98.6-22.3 86.55-22.3Q86.55-22.3 86.52-22.28 86.5-22.25 86.47-22.25 86.45-22.25 86.45-22.2L86.45-22.2Q86.45-20 86.45-17.78 86.45-15.55 86.45-13.33 86.45-11.1 86.45-8.88 86.45-6.65 86.45-4.42 86.45-2.2 86.45 0L86.45 0 65.7 0Q65.7-3.7 65.7-7.4 65.7-11.1 65.7-14.8 65.7-18.5 65.7-22.2L65.7-22.2Q65.7-22.2 65.7-22.23 65.7-22.25 65.67-22.28 65.65-22.3 65.62-22.3 65.6-22.3 65.6-22.3L65.6-22.3 53.55-22.3 53.55-37.5ZM121-37.5L100.25-37.5Q100.25-35 100.25-32.38 100.25-29.75 100.25-27.1 100.25-24.45 100.25-21.8L100.25-21.8Q100.25-19.8 100.25-17.78 100.25-15.75 100.25-13.85L100.25-13.85Q100.25-10.8 101.59-8.33 102.95-5.85 105.32-4.03 107.7-2.2 110.82-0.95 113.95 0.3 117.52 0.9 121.09 1.5 124.75 1.5L124.75 1.5Q129.34 1.5 133.72 0.55 138.09-0.4 141.59-2.33 145.09-4.25 147.17-7.13 149.25-10 149.25-13.85L149.25-13.85Q149.25-17.65 149.25-21.68 149.25-25.7 149.25-29.7 149.25-33.7 149.25-37.5L149.25-37.5 128.5-37.5Q128.5-34.75 128.5-32.2 128.5-29.65 128.5-27.25 128.5-24.85 128.5-22.5 128.5-20.15 128.5-17.75L128.5-17.75Q128.5-16.3 127.34-15.55 126.2-14.8 124.75-14.8L124.75-14.8Q124.05-14.8 123.37-15 122.7-15.2 122.17-15.58 121.65-15.95 121.32-16.5 121-17.05 121-17.8L121-17.8Q121-22.55 121-27.3 121-32.05 121-37.5L121-37.5ZM177.34-22.6L177.34-22.6Q184.84-22.6 189.89-21.95 194.94-21.3 197.94-19.93 200.94-18.55 202.24-16.43 203.54-14.3 203.54-11.4L203.54-11.4Q203.54-8.25 201.52-5.83 199.49-3.4 195.87-1.78 192.24-0.15 187.47 0.68 182.69 1.5 177.19 1.5L177.19 1.5Q171.09 1.5 166.09 0.6 161.09-0.3 157.59-2.18 154.09-4.05 152.37-7 150.64-9.95 150.99-14.05L150.99-14.05 172.34-15.5Q171.94-14 172.57-13 173.19-12 174.54-11.5 175.89-11 177.54-11L177.54-11Q178.54-11 179.37-11.15 180.19-11.3 180.84-11.6 181.49-11.9 181.84-12.38 182.19-12.85 182.19-13.45L182.19-13.45Q182.19-14.65 180.97-15 179.74-15.35 177.39-15.35L177.39-15.35Q177.29-15.35 177.17-15.35 177.04-15.35 176.92-15.35 176.79-15.35 176.64-15.35 176.49-15.35 176.37-15.35 176.24-15.35 176.14-15.35L176.14-15.35Q168.74-15.35 163.84-16.13 158.94-16.9 156.09-18.3 153.24-19.7 152.04-21.63 150.84-23.55 150.84-25.95L150.84-25.95Q150.84-28.5 152.19-30.58 153.54-32.65 156.02-34.23 158.49-35.8 161.82-36.85 165.14-37.9 169.12-38.45 173.09-39 177.44-39L177.44-39Q183.59-39 188.47-37.9 193.34-36.8 196.67-34.75 199.99-32.7 201.44-29.85 202.89-27 202.14-23.45L202.14-23.45 181.49-22.5Q182.04-23.95 181.44-24.88 180.84-25.8 179.57-26.23 178.29-26.65 176.69-26.65L176.69-26.65Q175.69-26.65 174.89-26.48 174.09-26.3 173.52-25.98 172.94-25.65 172.62-25.2 172.29-24.75 172.29-24.25L172.29-24.25Q172.29-23.65 172.69-23.28 173.09-22.9 173.92-22.75 174.74-22.6 176.09-22.6L176.09-22.6Q176.19-22.6 176.32-22.6 176.44-22.6 176.57-22.6 176.69-22.6 176.82-22.6 176.94-22.6 177.07-22.6 177.19-22.6 177.34-22.6ZM231.24-22.6L231.24-22.6Q238.74-22.6 243.79-21.95 248.84-21.3 251.84-19.93 254.84-18.55 256.14-16.43 257.44-14.3 257.44-11.4L257.44-11.4Q257.44-8.25 255.42-5.83 253.39-3.4 249.77-1.78 246.14-0.15 241.37 0.68 236.59 1.5 231.09 1.5L231.09 1.5Q224.99 1.5 219.99 0.6 214.99-0.3 211.49-2.18 207.99-4.05 206.27-7 204.54-9.95 204.89-14.05L204.89-14.05 226.24-15.5Q225.84-14 226.47-13 227.09-12 228.44-11.5 229.79-11 231.44-11L231.44-11Q232.44-11 233.27-11.15 234.09-11.3 234.74-11.6 235.39-11.9 235.74-12.38 236.09-12.85 236.09-13.45L236.09-13.45Q236.09-14.65 234.87-15 233.64-15.35 231.29-15.35L231.29-15.35Q231.19-15.35 231.07-15.35 230.94-15.35 230.82-15.35 230.69-15.35 230.54-15.35 230.39-15.35 230.27-15.35 230.14-15.35 230.04-15.35L230.04-15.35Q222.64-15.35 217.74-16.13 212.84-16.9 209.99-18.3 207.14-19.7 205.94-21.63 204.74-23.55 204.74-25.95L204.74-25.95Q204.74-28.5 206.09-30.58 207.44-32.65 209.92-34.23 212.39-35.8 215.72-36.85 219.04-37.9 223.02-38.45 226.99-39 231.34-39L231.34-39Q237.49-39 242.37-37.9 247.24-36.8 250.57-34.75 253.89-32.7 255.34-29.85 256.79-27 256.04-23.45L256.04-23.45 235.39-22.5Q235.94-23.95 235.34-24.88 234.74-25.8 233.47-26.23 232.19-26.65 230.59-26.65L230.59-26.65Q229.59-26.65 228.79-26.48 227.99-26.3 227.42-25.98 226.84-25.65 226.52-25.2 226.19-24.75 226.19-24.25L226.19-24.25Q226.19-23.65 226.59-23.28 226.99-22.9 227.82-22.75 228.64-22.6 229.99-22.6L229.99-22.6Q230.09-22.6 230.22-22.6 230.34-22.6 230.47-22.6 230.59-22.6 230.72-22.6 230.84-22.6 230.97-22.6 231.09-22.6 231.24-22.6ZM285.64-37.5L285.64-37.5 308.34-37.5Q305.59-32.5 302.84-27.5 300.09-22.5 297.31-17.5 294.54-12.5 291.79-7.5L291.79-7.5Q291.79-7.5 291.79-7.5 291.79-7.5 291.79-7.5L291.79-7.5 291.79 0 271.04 0 271.04-7.55Q271.04-7.55 271.04-7.55 271.04-7.55 271.04-7.55L271.04-7.55Q269.29-10.55 267.56-13.55 265.84-16.55 264.11-19.55 262.39-22.55 260.64-25.53 258.89-28.5 257.16-31.5 255.44-34.5 253.69-37.5L253.69-37.5 277.69-37.5Q278.34-35.1 278.96-32.7 279.59-30.3 280.24-27.9 280.89-25.5 281.49-23.1L281.49-23.1Q281.49-23.1 281.51-23.08 281.54-23.05 281.54-23.05 281.54-23.05 281.56-23.08 281.59-23.1 281.59-23.1L281.59-23.1Q282.09-24.9 282.59-26.7 283.09-28.5 283.61-30.3 284.14-32.1 284.64-33.9 285.14-35.7 285.64-37.5Z" opacity="1" transform="matrix(1,0,0,1,0,0)" fill="#ffffff" class="wordmark-text-0" data-fill-palette-color="primary" id="text-0"></path></svg></g></svg></g><g transform="matrix(1,0,0,1,87.61620823143772,64.33844864519902)"><svg viewBox="0 0 220.28758353712448 33.832864337936634" height="33.832864337936634" width="220.28758353712448"><g transform="matrix(1,0,0,1,0,0)"><svg width="220.28758353712448" viewBox="-0.25 -37.7 250.32 38.45" height="33.832864337936634" data-palette-color="#f4ab4f"><path d="M17.85-34.55L24.35-34.55 15.25-13.15 15.25 0 8.85 0 8.85-13.1-0.25-34.55 6.5-34.55 12.15-18.3 17.85-34.55ZM36.35-27.15Q41.35-27.15 44.12-23.65 46.9-20.15 46.9-13.25L46.9-13.25Q46.9-6.65 44.1-2.95 41.3 0.75 36.35 0.75L36.35 0.75Q31.4 0.75 28.6-2.88 25.8-6.5 25.8-13.25L25.8-13.25Q25.8-19.95 28.6-23.55 31.4-27.15 36.35-27.15L36.35-27.15ZM36.35-22.5Q34.2-22.5 33.2-20.38 32.2-18.25 32.2-13.25L32.2-13.25Q32.2-8.2 33.2-6.08 34.2-3.95 36.35-3.95L36.35-3.95Q38.5-3.95 39.5-6.08 40.5-8.2 40.5-13.25L40.5-13.25Q40.5-18.3 39.5-20.4 38.5-22.5 36.35-22.5L36.35-22.5ZM69.59-26.45L69.59 0 64.25 0 63.95-3.35Q62.7-1.3 61.14-0.28 59.59 0.75 57.55 0.75L57.55 0.75Q54.64 0.75 52.97-1.3 51.3-3.35 51.3-6.65L51.3-6.65 51.3-26.45 57.45-26.45 57.45-7Q57.45-3.9 59.55-3.9L59.55-3.9Q60.74-3.9 61.7-4.83 62.64-5.75 63.45-7.45L63.45-7.45 63.45-26.45 69.59-26.45ZM86.94-27.1Q88.09-27.1 88.99-26.75L88.99-26.75 87.99-20.85Q86.99-21.1 86.14-21.1L86.14-21.1Q84.24-21.1 83.14-19.45 82.04-17.8 81.44-14.55L81.44-14.55 81.44 0 75.29 0 75.29-26.45 80.64-26.45 81.09-21.85Q82.94-27.1 86.94-27.1L86.94-27.1ZM113.84-27.15Q117.69-27.15 119.74-23.65 121.79-20.15 121.79-13.25L121.79-13.25Q121.79-6.75 119.49-3 117.19 0.75 113.19 0.75L113.19 0.75Q111.44 0.75 109.99-0.13 108.54-1 107.49-2.55L107.49-2.55 107.14 0 101.69 0 101.69-37 107.84-37.65 107.84-23.6Q108.89-25.3 110.41-26.23 111.94-27.15 113.84-27.15L113.84-27.15ZM111.54-3.9Q113.39-3.9 114.41-6 115.44-8.1 115.44-13.25L115.44-13.25Q115.44-18.6 114.51-20.58 113.59-22.55 111.89-22.55L111.89-22.55Q110.74-22.55 109.69-21.6 108.64-20.65 107.84-19.1L107.84-19.1 107.84-6.7Q108.49-5.45 109.46-4.67 110.44-3.9 111.54-3.9L111.54-3.9ZM145.24-13.85Q145.24-13.4 145.09-11.3L145.09-11.3 131.44-11.3Q131.64-7.2 132.86-5.58 134.09-3.95 136.34-3.95L136.34-3.95Q137.89-3.95 139.14-4.48 140.39-5 141.84-6.15L141.84-6.15 144.39-2.65Q140.89 0.75 135.99 0.75L135.99 0.75Q130.79 0.75 128.01-2.85 125.24-6.45 125.24-13L125.24-13Q125.24-19.55 127.89-23.35 130.54-27.15 135.39-27.15L135.39-27.15Q140.04-27.15 142.64-23.78 145.24-20.4 145.24-13.85L145.24-13.85ZM139.24-15.3L139.24-15.65Q139.24-19.4 138.34-21.13 137.44-22.85 135.44-22.85L135.44-22.85Q133.59-22.85 132.61-21.18 131.64-19.5 131.44-15.3L131.44-15.3 139.24-15.3ZM155.13 0.75Q152.43 0.75 150.86-0.93 149.28-2.6 149.28-5.4L149.28-5.4 149.28-37.05 155.43-37.7 155.43-5.65Q155.43-5 155.73-4.6 156.03-4.2 156.63-4.2L156.63-4.2Q156.98-4.2 157.31-4.3 157.63-4.4 157.73-4.4L157.73-4.4 158.93-0.2Q157.23 0.75 155.13 0.75L155.13 0.75ZM171.38-27.15Q176.38-27.15 179.16-23.65 181.93-20.15 181.93-13.25L181.93-13.25Q181.93-6.65 179.13-2.95 176.33 0.75 171.38 0.75L171.38 0.75Q166.43 0.75 163.63-2.88 160.83-6.5 160.83-13.25L160.83-13.25Q160.83-19.95 163.63-23.55 166.43-27.15 171.38-27.15L171.38-27.15ZM171.38-22.5Q169.23-22.5 168.23-20.38 167.23-18.25 167.23-13.25L167.23-13.25Q167.23-8.2 168.23-6.08 169.23-3.95 171.38-3.95L171.38-3.95Q173.53-3.95 174.53-6.08 175.53-8.2 175.53-13.25L175.53-13.25Q175.53-18.3 174.53-20.4 173.53-22.5 171.38-22.5L171.38-22.5ZM198.88-26.45L204.93-26.45 198.03 0 190.78 0 183.68-26.45 190.03-26.45 194.38-4.95 198.88-26.45ZM226.68-13.85Q226.68-13.4 226.53-11.3L226.53-11.3 212.88-11.3Q213.07-7.2 214.3-5.58 215.53-3.95 217.78-3.95L217.78-3.95Q219.32-3.95 220.57-4.48 221.82-5 223.28-6.15L223.28-6.15 225.82-2.65Q222.32 0.75 217.42 0.75L217.42 0.75Q212.22 0.75 209.45-2.85 206.67-6.45 206.67-13L206.67-13Q206.67-19.55 209.32-23.35 211.97-27.15 216.82-27.15L216.82-27.15Q221.47-27.15 224.07-23.78 226.68-20.4 226.68-13.85L226.68-13.85ZM220.67-15.3L220.67-15.65Q220.67-19.4 219.78-21.13 218.88-22.85 216.88-22.85L216.88-22.85Q215.03-22.85 214.05-21.18 213.07-19.5 212.88-15.3L212.88-15.3 220.67-15.3ZM243.92-37.7L250.07-37.05 250.07 0 244.62 0 244.32-3.05Q241.97 0.75 238.27 0.75L238.27 0.75Q234.17 0.75 232-2.93 229.82-6.6 229.82-13.2L229.82-13.2Q229.82-17.4 230.95-20.58 232.07-23.75 234.07-25.45 236.07-27.15 238.67-27.15L238.67-27.15Q241.87-27.15 243.92-24.5L243.92-24.5 243.92-37.7ZM240.02-3.9Q241.17-3.9 242.1-4.7 243.02-5.5 243.92-7L243.92-7 243.92-19.85Q242.32-22.55 240.27-22.55L240.27-22.55Q236.22-22.55 236.22-13.25L236.22-13.25Q236.22-8.2 237.22-6.05 238.22-3.9 240.02-3.9L240.02-3.9Z" opacity="1" transform="matrix(1,0,0,1,0,0)" fill="#ffffff" class="slogan-text-1" data-fill-palette-color="secondary" id="text-1"></path></svg></g></svg></g></svg></g></svg></g><g transform="matrix(1,0,0,1,111.6078008653896,0)"><svg viewBox="0 0 172.3043982692207 172.3043982692207" height="172.3043982692207" width="172.3043982692207"><g><svg></svg></g><g id="icon-0"><svg viewBox="0 0 172.3043982692207 172.3043982692207" height="172.3043982692207" width="172.3043982692207"><g><path transform="scale(1.72304,1.72304)" d="M30 100c-16.569 0-30-13.431-30-30v-40c0-16.569 13.431-30 30-30h40c16.569 0 30 13.431 30 30v40c0 16.569-13.431 30-30 30z" fill="#ffffff" fill-rule="nonzero" stroke="none" stroke-width="1" stroke-linecap="butt" stroke-linejoin="miter" stroke-miterlimit="10" stroke-dasharray="" stroke-dashoffset="0" font-family="none" font-weight="none" font-size="none" text-anchor="none" style="mix-blend-mode: normal" data-fill-palette-color="accent"></path></g><g transform="matrix(1,0,0,1,34.460879653844145,34.460879653844145)"><svg viewBox="0 0 103.38263896153242 103.38263896153242" height="103.38263896153242" width="103.38263896153242"><g><svg xmlns="http://www.w3.org/2000/svg" xmlns:xlink="http://www.w3.org/1999/xlink" version="1.1" x="0" y="0" viewBox="0 0 26 26" style="enable-background:new 0 0 26 26;" xml:space="preserve" height="103.38263896153242" width="103.38263896153242" class="icon-dxe-0" data-fill-palette-color="quaternary" id="dxe-0"><g fill="#ec9645" data-fill-palette-color="quaternary"><path d="M13 0C5.82 0 0 5.82 0 13S5.82 26 13 26 26 20.18 26 13 20.18 0 13 0M11.248 20.07C10.077 21.242 8.093 21.157 5.945 19.01 3.798 16.862 4.178 13 4.178 13S8.04 12.62 10.188 14.768C12.335 16.915 12.42 18.899 11.248 20.07M10 9.5C10 6.463 13 4 13 4S16 6.463 16 9.5 14.656 14 13 14 10 12.537 10 9.5M20.055 19.01C17.907 21.157 15.923 21.242 14.752 20.07 13.58 18.899 13.665 16.915 15.812 14.767 17.96 12.62 21.822 13 21.822 13S22.202 16.862 20.055 19.01" fill="#000000" data-fill-palette-color="quaternary"></path></g></svg></g></svg></g></svg></g></svg></g><g></g></svg></g><defs></defs></svg><rect width="345.7748600427776" height="247.2" fill="none" stroke="none" visibility="hidden"></rect></g></svg></g></svg>